<svg width="48" height="48" viewBox="0 0 48 48" fill="none" xmlns="http://www.w3.org/2000/svg">
  <rect width="48" height="48" rx="10" fill="#181717"/>
  <g transform="translate(12, 12) scale(1.0)">
    <path fill="#35B5E2" d="M7.998 0h-2.4c-.233 0-.348.118-.348.352v23.295c0 .235.115.352.348.352h2.401c.232 0 .349-.117.349-.352v-5.11l1.427-1.374 5.115 6.59c.137.165.299.247.485.247h3.097c.162 0 .255-.047.278-.141l-.07-.353-6.749-8.494 6.471-6.343c.121-.124.078-.493-.244-.493h-3.201c-.162 0-.324.083-.487.247l-6.123 6.273V.352C8.347.118 8.23 0 7.998 0z" transform="scale(1)"></path>
  </g>
</svg>
